# AST/ASF file generated using VICON BodyLanguage
# -----------------------------------------------
:version 1.10
:name VICON
:units
  mass 1.0
  length 0.45
  angle deg
:documentation
   .ast/.asf automatically generated from VICON data using
   VICON BodyBuilder and BodyLanguage model FoxedUp or BRILLIANT.MOD
:root
   order TX TY TZ RX RY RZ
   axis XYZ
   position 0 0 0  
   orientation 0 0 0 
:bonedata
  begin
     id 1 
     name lhipjoint
     direction 0.630082 -0.636569 0.44472 
     length 2.82754 
     axis 0 0 0  XYZ
  end
  begin
     id 2 
     name lfemur
     direction 0.34202 -0.939693 0  
     length 7.26371  
     axis 0 0 20  XYZ
    dof rx ry rz
    limits (-160.0 20.0)
           (-70.0 70.0)
           (-60.0 70.0)
  end
  begin
     id 3 
     name ltibia
     direction 0.34202 -0.939693 0   
     length 7.88616   
     axis 0 0 20   XYZ
    dof rx
    limits (-10.0 170.0)
  end
  begin
     id 4 
     name lfoot
     direction 0.0603448 -0.165796 0.984312   
     length 1.77861   
     axis -90 7.62852e-016 20   XYZ
    dof rx rz
    limits (-45.0 90.0)
           (-70.0 20.0)
  end
  begin
     id 5 
     name ltoes
     direction 1.53577e-011 -4.21876e-011 1   
     length 0.902235   
     axis -90 7.62852e-016 20   XYZ
    dof rx
    limits (-90.0 20.0)
  end
  begin
     id 6 
     name rhipjoint
     direction -0.656778 -0.61817 0.431866   
     length 2.9117  
     axis 0 0 0  XYZ 
  end
  begin
     id 7 
     name rfemur
     direction -0.34202 -0.939693 0   
     length 6.81603   
     axis 0 0 -20   XYZ
    dof rx ry rz
    limits (-160.0 20.0)
           (-70.0 70.0)
           (-70.0 60.0)
  end
  begin
     id 8 
     name rtibia
     direction -0.34202 -0.939693 0   
     length 8.05997   
     axis 0 0 -20   XYZ
    dof rx
    limits (-10.0 170.0)
 end
 begin
     id 9 
     name rfoot
     direction -0.0862404 -0.236944 0.967688   
     length 1.84899  
     axis -90 -7.62852e-016 -20   XYZ
    dof rx rz
    limits (-45.0 90.0)
           (-20.0 70.0)
  end
  begin
     id 10 
     name rtoes
     direction -1.53561e-011 -4.21798e-011 1   
     length 0.931579   
     axis -90 -7.62852e-016 -20   XYZ
    dof rx
    limits (-90.0 20.0)
  end
  begin
     id 11 
     name lowerback
     direction -0.0110203 0.991769 -0.127564   
     length 2.05686   
     axis 0 0 0   XYZ
    dof rx ry rz
    limits (-20.0 45.0)
           (-30.0 30.0)
           (-30.0 30.0)
  end
  begin
     id 12 
     name upperback
     direction 0.0109719 0.99993 -0.00432479   
     length 2.06234   
     axis 0 0 0   XYZ
    dof rx ry rz
    limits (-20.0 45.0)
           (-30.0 30.0)
           (-30.0 30.0)
  end
  begin
     id 13 
     name thorax
     direction 0.0173308 0.998351 0.0547306   
     length 2.09856   
     axis 0 0 0   XYZ
    dof rx ry rz
    limits (-20.0 45.0)
           (-30.0 30.0)
           (-30.0 30.0)
  end
  begin
     id 14 
     name lowerneck
     direction -0.0311736 0.989033 0.144366   
     length 1.98151   
     axis 0 0 0   XYZ
    dof rx ry rz
    limits (-20.0 45.0)
           (-30.0 30.0)
           (-30.0 30.0)
  end
  begin
     id 15 
     name upperneck
     direction 0.0421057 0.975772 -0.214698   
     length 2.01457   
     axis 0 0 0   XYZ
    dof rx ry rz
    limits (-20.0 45.0)
           (-30.0 30.0)
           (-30.0 30.0)
  end
  begin
     id 16
     name head
     direction 0.0136911 0.995958 -0.0887718  
     length 2.03562  
     axis 0 0 0   XYZ
    dof rx ry rz
    limits (-20.0 45.0)
           (-30.0 30.0)
           (-30.0 30.0)
  end
  begin
     id 17 
     name lclavicle
     direction 0.915335 0.396201 0.0720134  
     length 4.16217  
     axis 0 0 0   XYZ
    dof ry rz
    limits (-20.0 10.0)
           (0.0 20.0)
  end
  begin
     id 18 
     name lhumerus
     direction 1 -4.48965e-011 6.383e-018   
     length 4.93042   
     axis -180 -30 -90   XYZ
    dof rx ry rz
    limits (-60.0 90.0)
           (-90.0 90.0)
           (-90.0 90.0)
  end
  begin
     id 19
     name lradius
     direction 1 -4.48972e-011 8.8689e-027   
     length 3.68177   
     axis -180 -30 -90   XYZ
    dof rx
    limits (-10.0 170.0)
  end
  begin
     id 20
     name lwrist
     direction 1 -4.48953e-011 1.17971e-026   
     length 1.84089   
     axis -7.69454e-015 90 90   XYZ
    dof ry
    limits (-180.0 0.0)
 end
  begin
     id 21 
     name lhand
     direction 1 -4.49027e-011 2.35802e-026   
     length 0.721479   
     axis -1.50533e-014 90 90   XYZ
    dof rx rz
    limits (-90.0 90.0)
           (-45.0 45.0)
  end
  begin
     id 22 
     name lfingers
     direction 1 -4.48915e-011 4.72027e-026   
     length 0.581675   
     axis -3.01059e-014 90 90   XYZ
    dof rx
    limits (0.0 90.0)
  end
  begin
     id 23
     name lthumb
     direction 0.707107 -6.34948e-011 0.707107   
     length 0.835172   
     axis -90 45 -5.12164e-014   XYZ
    dof rx rz
    limits (-45.0 45.0)
           (-45.0 45.0)
  end
  begin
     id 24 
     name rclavicle
     direction -0.882781 0.469197 0.0234974   
     length 3.95647  
     axis 0 0 0   XYZ 
    dof ry rz
    limits (-10.0 20.0)
           (-20.0 0.0)
  end
  begin
     id 25 
     name rhumerus
     direction -1 -4.48965e-011 -1.54906e-018  
     length 5.07905   
     axis -180 30 90   XYZ
    dof rx ry rz
    limits (-90.0 60.0)
           (-90.0 90.0)
           (-90.0 90.0)
  end
  begin
     id 26 
     name rradius
     direction -1 -4.48972e-011 5.47489e-027   
     length 3.54394   
     axis -180 30 90   XYZ
    dof rx
    limits (-10.0 170.0)
  end
  begin
     id 27 
     name rwrist
     direction -1 -4.48955e-011 1.17969e-026   
     length 1.77197   
     axis -7.69454e-015 -90 -90   XYZ
    dof ry
    limits (-180.0 0.0)
  end
  begin
     id 28
     name rhand
     direction -1 -4.48982e-011 2.35888e-026   
     length 0.681156   
     axis -1.50533e-014 -90 -90   XYZ
    dof rx rz
    limits (-90.0 90.0)
           (-45.0 45.0)
  end
  begin
     id 29
     name rfingers
     direction -1 -4.48955e-011 4.71877e-026   
     length 0.549165   
     axis -3.01059e-014 -90 -90   XYZ
    dof rx
    limits (0.0 90.0)
  end
  begin
     id 30
     name rthumb
     direction -0.707107 -6.3491e-011 0.707107   
     length 0.788495   
     axis -90 -45 5.12164e-014   XYZ
    dof rx rz
    limits (-45.0 45.0)
           (-45.0 45.0)
  end
:hierarchy
  begin
    root lhipjoint rhipjoint lowerback
    lhipjoint lfemur
    lfemur ltibia
    ltibia lfoot
    lfoot ltoes
    rhipjoint rfemur
    rfemur rtibia
    rtibia rfoot
    rfoot rtoes
    lowerback upperback
    upperback thorax
    thorax lowerneck lclavicle rclavicle
    lowerneck upperneck
    upperneck head
    lclavicle lhumerus
    lhumerus lradius
    lradius lwrist
    lwrist lhand lthumb
    lhand lfingers
    rclavicle rhumerus
    rhumerus rradius
    rradius rwrist
    rwrist rhand rthumb
    rhand rfingers
  end

#!OML:ASF H:\Bending\Project 1\Capture day 1\Session 1\Subject.ASF
:FULLY-SPECIFIED
:DEGREES
312
root -9.05428 18.1236 -16.3065 -163.749 85.0042 -173.084
lowerback 4.89956 -1.15476 -1.17601
upperback -2.23037 -1.4984 2.3
thorax -4.96934 -0.656658 3.18397
lowerneck -23.5112 -4.7487 -6.33103
upperneck 30.6805 -4.80364 2.45215
head 14.8193 -2.28242 1.19409
rclavicle -5.71506e-015 9.14409e-015
rhumerus -35.4678 5.09782 -81.0687
rradius 62.4635
rwrist -9.65982
rhand -16.6267 -23.6209
rfingers 7.12502
rthumb 9.5955 -53.3824
lclavicle -5.71506e-015 9.14409e-015
lhumerus -34.4093 -21.5333 94.0818
lradius 68.1521
lwrist 33.3823
lhand -36.0793 11.0039
lfingers 7.12502
lthumb -9.18629 40.7838
rfemur 2.87187 -5.20405 15.2943
rtibia -2.70347e-014
rfoot -9.21483 -14.9281
rtoes -1.66205
lfemur -11.9909 -15.5733 -11.0155
ltibia 22.1142
lfoot -20.9378 11.7187
ltoes -11.2626
313
root -9.04402 18.1115 -16.3067 -162.747 84.7235 -171.809
lowerback 5.01756 -1.28433 -1.03535
upperback -2.10921 -1.65738 2.40515
thorax -4.90077 -0.740067 3.22911
lowerneck -23.3705 -4.74756 -6.34814
upperneck 30.5118 -4.8133 2.47017
head 14.7141 -2.28881 1.2034
rclavicle -1.60519e-014 1.98785e-015
rhumerus -37.6058 2.7845 -80.3675
rradius 60.4432
rwrist -12.5604
rhand -17.7175 -28.8161
rfingers 7.12502
rthumb 8.54299 -58.6233
lclavicle -1.60519e-014 1.98785e-015
lhumerus -36.9394 -17.1088 94.3134
lradius 66.1673
lwrist 31.4845
lhand -35.4492 10.7665
lfingers 7.12502
lthumb -8.57825 40.5723
rfemur 3.29852 -5.41989 15.4583
rtibia -7.95139e-015
rfoot -9.48434 -14.8698
rtoes -1.26342
lfemur -11.8357 -15.479 -10.9041
ltibia 22.3401
lfoot -20.8642 11.5914
ltoes -12.8102
314
root -9.03761 18.0989 -16.3063 -161.527 84.4155 -170.348
lowerback 5.09763 -1.40083 -0.764777
upperback -1.98009 -1.79237 2.45429
thorax -4.80947 -0.816807 3.13913
lowerneck -23.2521 -4.77935 -6.35163
upperneck 30.3706 -4.8823 2.5085
head 14.63 -2.31533 1.20692
rclavicle 4.37326e-015 -3.97569e-015
rhumerus -39.422 -0.185169 -79.3355
rradius 58.228
rwrist -15.6356
rhand -19.1395 -32.4106
rfingers 7.12502
rthumb 7.17053 -62.2691
lclavicle 4.37326e-015 -3.97569e-015
lhumerus -38.9585 -12.5594 93.8414
lradius 63.8801
lwrist 29.7267
lhand -35.0921 10.6998
lfingers 7.12502
lthumb -8.23367 40.5194
rfemur 3.67816 -5.65381 15.6588
rtibia 1.27222e-014
rfoot -9.72612 -14.8106
rtoes -0.838253
lfemur -11.7368 -15.3966 -10.7385
ltibia 22.561
lfoot -20.7982 11.4857
ltoes -14.4202
315
root -9.03468 18.0867 -16.3053 -160.264 84.1292 -168.9
lowerback 5.11126 -1.4879 -0.411515
upperback -1.85251 -1.88481 2.456
thorax -4.68968 -0.875567 2.94724
lowerneck -23.1534 -4.831 -6.33116
upperneck 30.2495 -4.98342 2.53304
head 14.5601 -2.35442 1.19432
rclavicle 6.70898e-015 -4.77083e-015
rhumerus -41.05 -3.47817 -77.9395
rradius 55.8888
rwrist -18.3644
rhand -20.4281 -34.2212
rfingers 7.12502
rthumb 5.9265 -64.1183
lclavicle 6.70898e-015 -4.77083e-015
lhumerus -40.5735 -8.11069 92.827
lradius 61.3769
lwrist 28.4291
lhand -35.2349 10.8963
lfingers 7.12502
lthumb -8.37149 40.7104
rfemur 3.97251 -5.86523 15.868
rtibia -9.54166e-015
rfoot -9.93638 -14.7556
rtoes -0.338997
lfemur -11.6903 -15.3461 -10.5452
ltibia 22.7438
lfoot -20.7862 11.4001
ltoes -15.6422
316
root -9.03494 18.0756 -16.3038 -159.159 83.903 -167.677
lowerback 5.06368 -1.53938 -0.0589469
upperback -1.73498 -1.93176 2.43587
thorax -4.54984 -0.911474 2.72725
lowerneck -23.0637 -4.88204 -6.28906
upperneck 30.1304 -5.07643 2.51569
head 14.4906 -2.39367 1.16251
rclavicle -3.14577e-014 2.78299e-015
rhumerus -42.5956 -6.63459 -76.2499
rradius 53.4839
rwrist -20.3033
rhand -21.1801 -35.0459
rfingers 7.12502
rthumb 5.20047 -64.9621
lclavicle -3.14577e-014 2.78299e-015
lhumerus -41.8852 -3.91155 91.4607
lradius 58.7417
lwrist 27.8012
lhand -36 11.4137
lfingers 7.12502
lthumb -9.10983 41.1969
rfemur 4.17182 -6.02602 16.0532
rtibia -1.27222e-014
rfoot -10.1144 -14.7142
rtoes 0.159402
lfemur -11.677 -15.3438 -10.3631
ltibia 22.8658
lfoot -20.8571 11.3315
ltoes -16.192
317
root -9.03823 18.0657 -16.302 -158.385 83.7565 -166.833
lowerback 4.98551 -1.55984 0.210949
upperback -1.63244 -1.94376 2.42084
thorax -4.40766 -0.926821 2.55547
lowerneck -22.9711 -4.91083 -6.23642
upperneck 29.9975 -5.12295 2.44764
head 14.4099 -2.41955 1.11748
rclavicle 2.73329e-015 1.66979e-014
rhumerus -44.0731 -9.25762 -74.4213
rradius 51.0178
rwrist -21.174
rhand -21.3868 -35.6852
rfingers 7.12502
rthumb 5.00085 -65.6062
lclavicle 2.73329e-015 1.66979e-014
lhumerus -42.9733 -0.0556975 89.9112
lradius 56.0375
lwrist 27.8935
lhand -37.3171 12.2169
lfingers 7.12502
lthumb -10.3806 41.9407
rfemur 4.29264 -6.1256 16.1874
rtibia -1.11319e-014
rfoot -10.2563 -14.6994
rtoes 0.453792
lfemur -11.6686 -15.4054 -10.2286
ltibia 22.9197
lfoot -21.0164 11.2869
ltoes -16.0409
318
root -9.0445 18.0567 -16.2996 -158.029 83.6879 -166.432
lowerback 4.91384 -1.5601 0.353396
upperback -1.54511 -1.93684 2.42545
thorax -4.2811 -0.928368 2.47482
lowerneck -22.8699 -4.90278 -6.18703
upperneck 29.8474 -5.10178 2.34327
head 14.3154 -2.42244 1.07174
rclavicle -1.27719e-014 -8.74653e-015
rhumerus -45.4174 -11.1798 -72.6159
rradius 48.4443
rwrist -20.8553
rhand -21.3267 -36.3683
rfingers 7.12502
rthumb 5.05889 -66.2879
lclavicle -1.27719e-014 -8.74653e-015
lhumerus -43.8879 3.38212 88.3002
lradius 53.2878
lwrist 28.6083
lhand -38.8967 13.1555
lfingers 7.12502
lthumb -11.904 42.7971
rfemur 4.36595 -6.16958 16.2592
rtibia -1.59028e-015
rfoot -10.3577 -14.7214
rtoes 0.319279
lfemur -11.6375 -15.547 -10.1623
ltibia 22.9104
lfoot -21.2478 11.2898
ltoes -15.4054
319
root -9.05375 18.0484 -16.2965 -158.072 83.6784 -166.428
lowerback 4.87375 -1.55037 0.376748
upperback -1.4695 -1.9234 2.44689
thorax -4.18042 -0.922937 2.47944
lowerneck -22.7639 -4.85639 -6.15328
upperneck 29.6946 -5.01657 2.23373
head 14.2163 -2.40036 1.03926
rclavicle 2.70844e-014 -1.11319e-014
rhumerus -46.553 -12.5091 -70.9157
rradius 45.7044
rwrist -19.3528
rhand -21.2695 -36.8206
rfingers 7.12502
rthumb 5.11417 -66.7388
lclavicle 2.70844e-014 -1.11319e-014
lhumerus -44.6421 6.31986 86.709
lradius 50.4675
lwrist 29.7582
lhand -40.2985 14.0006
lfingers 7.12502
lthumb -13.2555 43.5591
rfemur 4.42213 -6.17391 16.2746
rtibia 3.18055e-015
rfoot -10.4221 -14.7775
rtoes -0.328036
lfemur -11.5662 -15.7881 -10.1623
ltibia 22.8498
lfoot -21.5239 11.378
ltoes -14.6272
320
root -9.0659 18.0405 -16.2928 -158.387 83.7011 -166.682
lowerback 4.86829 -1.53472 0.333425
upperback -1.40147 -1.90582 2.4699
thorax -4.1052 -0.913584 2.52423
lowerneck -22.6635 -4.78398 -6.14321
upperneck 29.5648 -4.89327 2.15319
head 14.129 -2.35983 1.02996
rclavicle 4.91992e-015 2.06736e-014
rhumerus -47.4546 -13.5449 -69.2841
rradius 42.7718
rwrist -16.8163
rhand -21.3153 -36.6963
rfingers 7.12502
rthumb 5.06989 -66.6157
lclavicle 4.91992e-015 2.06736e-014
lhumerus -45.2125 8.6652 85.2039
lradius 47.5123
lwrist 31.1409
lhand -41.0749 14.5323
lfingers 7.12502
lthumb -14.0038 44.0406
rfemur 4.47923 -6.15748 16.252
rtibia 1.27222e-014
rfoot -10.4721 -14.8462
rtoes -1.30274
lfemur -11.4524 -16.1516 -10.2065
ltibia 22.75
lfoot -21.8204 11.5902
ltoes -13.9992
321
root -9.0807 18.0334 -16.2889 -158.78 83.7313 -167.001
lowerback 4.87972 -1.5102 0.292338
upperback -1.33879 -1.87664 2.47741
thorax -4.04619 -0.898714 2.55151
lowerneck -22.579 -4.70628 -6.15861
upperneck 29.4818 -4.76826 2.12431
head 14.0682 -2.31301 1.04601
rclavicle 2.16178e-014 -2.98177e-014
rhumerus -48.1636 -14.6272 -67.5974
rradius 39.6848
rwrist -13.5694
rhand -21.4097 -35.8814
rfingers 7.12502
rthumb 4.97881 -65.8029
lclavicle 2.16178e-014 -2.98177e-014
lhumerus -45.5522 10.3328 83.8607
lradius 44.35
lwrist 32.5933
lhand -40.919 14.6322
lfingers 7.12502
lthumb -13.8536 44.1508
rfemur 4.53917 -6.13597 16.2133
rtibia 1.59028e-015
rfoot -10.5497 -14.8898
rtoes -2.16552
lfemur -11.3087 -16.6597 -10.2639
ltibia 22.6209
lfoot -22.1277 11.9513
ltoes -13.6302
322
root -9.09771 18.0279 -16.2855 -159.068 83.7542 -167.218
lowerback 4.88 -1.47015 0.306617
upperback -1.28209 -1.82431 2.4602
thorax -3.99061 -0.874015 2.52
lowerneck -22.5139 -4.6433 -6.19343
upperneck 29.4561 -4.67299 2.14845
head 14.0402 -2.27252 1.08091
rclavicle -1.26725e-014 2.38542e-014
rhumerus -48.7669 -16 -65.7194
rradius 36.5492
rwrist -10.069
rhand -21.3834 -34.5186
rfingers 7.12502
rthumb 5.00413 -64.4395
lclavicle -1.26725e-014 2.38542e-014
lhumerus -45.619 11.2699 82.7725
lradius 40.9473
lwrist 34.0067
lhand -39.7544 14.329
lfingers 7.12502
lthumb -12.731 43.9209
rfemur 4.59146 -6.11797 16.1746
rtibia -1.74931e-014
rfoot -10.7012 -14.869
rtoes -2.40308
lfemur -11.1575 -17.3244 -10.3072
ltibia 22.4713
lfoot -22.4532 12.4612
ltoes -13.417
